<mxfile host="Electron" modified="2024-04-02T14:19:52.974Z" agent="Mozilla/5.0 (Windows NT 10.0; Win64; x64) AppleWebKit/537.36 (KHTML, like Gecko) draw.io/23.0.2 Chrome/120.0.6099.109 Electron/28.1.0 Safari/537.36" etag="-pa5W1GlNMRi_8pZMxU6" version="23.0.2" type="device">
  <diagram name="Page-1" id="liOg1WndtOyjNf7DYHSw">
    <mxGraphModel dx="864" dy="508" grid="1" gridSize="10" guides="1" tooltips="1" connect="1" arrows="1" fold="1" page="1" pageScale="1" pageWidth="1200" pageHeight="1600" math="0" shadow="0">
      <root>
        <mxCell id="0" />
        <mxCell id="1" parent="0" />
        <mxCell id="jGPogQKzhmC8kMohIOGF-1" value="Contact" style="swimlane;fontStyle=0;childLayout=stackLayout;horizontal=1;startSize=26;fillColor=none;horizontalStack=0;resizeParent=1;resizeParentMax=0;resizeLast=0;collapsible=1;marginBottom=0;whiteSpace=wrap;html=1;" parent="1" vertex="1">
          <mxGeometry x="211.36" y="333" width="140" height="130" as="geometry" />
        </mxCell>
        <mxCell id="jGPogQKzhmC8kMohIOGF-2" value="- id: int" style="text;strokeColor=none;fillColor=none;align=left;verticalAlign=top;spacingLeft=4;spacingRight=4;overflow=hidden;rotatable=0;points=[[0,0.5],[1,0.5]];portConstraint=eastwest;whiteSpace=wrap;html=1;" parent="jGPogQKzhmC8kMohIOGF-1" vertex="1">
          <mxGeometry y="26" width="140" height="26" as="geometry" />
        </mxCell>
        <mxCell id="jGPogQKzhmC8kMohIOGF-84" value="- name: String" style="text;strokeColor=none;fillColor=none;align=left;verticalAlign=top;spacingLeft=4;spacingRight=4;overflow=hidden;rotatable=0;points=[[0,0.5],[1,0.5]];portConstraint=eastwest;whiteSpace=wrap;html=1;" parent="jGPogQKzhmC8kMohIOGF-1" vertex="1">
          <mxGeometry y="52" width="140" height="26" as="geometry" />
        </mxCell>
        <mxCell id="jGPogQKzhmC8kMohIOGF-3" value="- phoneNumber: String" style="text;strokeColor=none;fillColor=none;align=left;verticalAlign=top;spacingLeft=4;spacingRight=4;overflow=hidden;rotatable=0;points=[[0,0.5],[1,0.5]];portConstraint=eastwest;whiteSpace=wrap;html=1;" parent="jGPogQKzhmC8kMohIOGF-1" vertex="1">
          <mxGeometry y="78" width="140" height="26" as="geometry" />
        </mxCell>
        <mxCell id="jGPogQKzhmC8kMohIOGF-4" value="- emailAddress: String" style="text;strokeColor=none;fillColor=none;align=left;verticalAlign=top;spacingLeft=4;spacingRight=4;overflow=hidden;rotatable=0;points=[[0,0.5],[1,0.5]];portConstraint=eastwest;whiteSpace=wrap;html=1;" parent="jGPogQKzhmC8kMohIOGF-1" vertex="1">
          <mxGeometry y="104" width="140" height="26" as="geometry" />
        </mxCell>
        <mxCell id="jGPogQKzhmC8kMohIOGF-6" value="User" style="swimlane;fontStyle=0;childLayout=stackLayout;horizontal=1;startSize=26;fillColor=none;horizontalStack=0;resizeParent=1;resizeParentMax=0;resizeLast=0;collapsible=1;marginBottom=0;whiteSpace=wrap;html=1;" parent="1" vertex="1">
          <mxGeometry x="365.74" y="36" width="148.52" height="178" as="geometry" />
        </mxCell>
        <mxCell id="jGPogQKzhmC8kMohIOGF-7" value="- id: String" style="text;strokeColor=none;fillColor=none;align=left;verticalAlign=top;spacingLeft=4;spacingRight=4;overflow=hidden;rotatable=0;points=[[0,0.5],[1,0.5]];portConstraint=eastwest;whiteSpace=wrap;html=1;" parent="jGPogQKzhmC8kMohIOGF-6" vertex="1">
          <mxGeometry y="26" width="148.52" height="26" as="geometry" />
        </mxCell>
        <mxCell id="jGPogQKzhmC8kMohIOGF-82" value="- name: String" style="text;strokeColor=none;fillColor=none;align=left;verticalAlign=top;spacingLeft=4;spacingRight=4;overflow=hidden;rotatable=0;points=[[0,0.5],[1,0.5]];portConstraint=eastwest;whiteSpace=wrap;html=1;" parent="jGPogQKzhmC8kMohIOGF-6" vertex="1">
          <mxGeometry y="52" width="148.52" height="26" as="geometry" />
        </mxCell>
        <mxCell id="jGPogQKzhmC8kMohIOGF-28" value="- password: String" style="text;strokeColor=none;fillColor=none;align=left;verticalAlign=top;spacingLeft=4;spacingRight=4;overflow=hidden;rotatable=0;points=[[0,0.5],[1,0.5]];portConstraint=eastwest;whiteSpace=wrap;html=1;" parent="jGPogQKzhmC8kMohIOGF-6" vertex="1">
          <mxGeometry y="78" width="148.52" height="26" as="geometry" />
        </mxCell>
        <mxCell id="jGPogQKzhmC8kMohIOGF-8" value="- email: String" style="text;strokeColor=none;fillColor=none;align=left;verticalAlign=top;spacingLeft=4;spacingRight=4;overflow=hidden;rotatable=0;points=[[0,0.5],[1,0.5]];portConstraint=eastwest;whiteSpace=wrap;html=1;" parent="jGPogQKzhmC8kMohIOGF-6" vertex="1">
          <mxGeometry y="104" width="148.52" height="26" as="geometry" />
        </mxCell>
        <mxCell id="jGPogQKzhmC8kMohIOGF-9" value="- contacts: List&amp;lt;Contact&amp;gt;" style="text;strokeColor=none;fillColor=none;align=left;verticalAlign=top;spacingLeft=4;spacingRight=4;overflow=hidden;rotatable=0;points=[[0,0.5],[1,0.5]];portConstraint=eastwest;whiteSpace=wrap;html=1;" parent="jGPogQKzhmC8kMohIOGF-6" vertex="1">
          <mxGeometry y="130" width="148.52" height="24" as="geometry" />
        </mxCell>
        <mxCell id="jGPogQKzhmC8kMohIOGF-81" value="- groups: List&amp;lt;Group&amp;gt;" style="text;strokeColor=none;fillColor=none;align=left;verticalAlign=top;spacingLeft=4;spacingRight=4;overflow=hidden;rotatable=0;points=[[0,0.5],[1,0.5]];portConstraint=eastwest;whiteSpace=wrap;html=1;" parent="jGPogQKzhmC8kMohIOGF-6" vertex="1">
          <mxGeometry y="154" width="148.52" height="24" as="geometry" />
        </mxCell>
        <mxCell id="jGPogQKzhmC8kMohIOGF-58" value="Group" style="swimlane;fontStyle=0;childLayout=stackLayout;horizontal=1;startSize=26;fillColor=none;horizontalStack=0;resizeParent=1;resizeParentMax=0;resizeLast=0;collapsible=1;marginBottom=0;whiteSpace=wrap;html=1;" parent="1" vertex="1">
          <mxGeometry x="501.36" y="333" width="167.28" height="104" as="geometry" />
        </mxCell>
        <mxCell id="jGPogQKzhmC8kMohIOGF-59" value="- id: int" style="text;strokeColor=none;fillColor=none;align=left;verticalAlign=top;spacingLeft=4;spacingRight=4;overflow=hidden;rotatable=0;points=[[0,0.5],[1,0.5]];portConstraint=eastwest;whiteSpace=wrap;html=1;" parent="jGPogQKzhmC8kMohIOGF-58" vertex="1">
          <mxGeometry y="26" width="167.28" height="26" as="geometry" />
        </mxCell>
        <mxCell id="jGPogQKzhmC8kMohIOGF-83" value="- name: String" style="text;strokeColor=none;fillColor=none;align=left;verticalAlign=top;spacingLeft=4;spacingRight=4;overflow=hidden;rotatable=0;points=[[0,0.5],[1,0.5]];portConstraint=eastwest;whiteSpace=wrap;html=1;" parent="jGPogQKzhmC8kMohIOGF-58" vertex="1">
          <mxGeometry y="52" width="167.28" height="26" as="geometry" />
        </mxCell>
        <mxCell id="jGPogQKzhmC8kMohIOGF-60" value="- contacts: List&amp;lt;Contact&amp;gt;" style="text;strokeColor=none;fillColor=none;align=left;verticalAlign=top;spacingLeft=4;spacingRight=4;overflow=hidden;rotatable=0;points=[[0,0.5],[1,0.5]];portConstraint=eastwest;whiteSpace=wrap;html=1;" parent="jGPogQKzhmC8kMohIOGF-58" vertex="1">
          <mxGeometry y="78" width="167.28" height="26" as="geometry" />
        </mxCell>
        <mxCell id="jGPogQKzhmC8kMohIOGF-66" style="edgeStyle=orthogonalEdgeStyle;rounded=0;orthogonalLoop=1;jettySize=auto;html=1;entryX=0.5;entryY=0;entryDx=0;entryDy=0;" parent="1" source="jGPogQKzhmC8kMohIOGF-64" target="jGPogQKzhmC8kMohIOGF-1" edge="1">
          <mxGeometry relative="1" as="geometry" />
        </mxCell>
        <mxCell id="jGPogQKzhmC8kMohIOGF-79" value="0..." style="edgeLabel;html=1;align=center;verticalAlign=middle;resizable=0;points=[];" parent="jGPogQKzhmC8kMohIOGF-66" vertex="1" connectable="0">
          <mxGeometry x="0.8531" y="2" relative="1" as="geometry">
            <mxPoint as="offset" />
          </mxGeometry>
        </mxCell>
        <mxCell id="jGPogQKzhmC8kMohIOGF-67" style="edgeStyle=orthogonalEdgeStyle;rounded=0;orthogonalLoop=1;jettySize=auto;html=1;entryX=0.5;entryY=0;entryDx=0;entryDy=0;" parent="1" source="jGPogQKzhmC8kMohIOGF-64" target="jGPogQKzhmC8kMohIOGF-58" edge="1">
          <mxGeometry relative="1" as="geometry" />
        </mxCell>
        <mxCell id="jGPogQKzhmC8kMohIOGF-76" value="1" style="edgeLabel;html=1;align=center;verticalAlign=middle;resizable=0;points=[];" parent="jGPogQKzhmC8kMohIOGF-67" vertex="1" connectable="0">
          <mxGeometry x="-0.8857" relative="1" as="geometry">
            <mxPoint x="-12" as="offset" />
          </mxGeometry>
        </mxCell>
        <mxCell id="jGPogQKzhmC8kMohIOGF-77" value="1" style="edgeLabel;html=1;align=center;verticalAlign=middle;resizable=0;points=[];" parent="jGPogQKzhmC8kMohIOGF-67" vertex="1" connectable="0">
          <mxGeometry x="-0.8857" relative="1" as="geometry">
            <mxPoint x="-36" y="-1" as="offset" />
          </mxGeometry>
        </mxCell>
        <mxCell id="jGPogQKzhmC8kMohIOGF-80" value="0..." style="edgeLabel;html=1;align=center;verticalAlign=middle;resizable=0;points=[];" parent="jGPogQKzhmC8kMohIOGF-67" vertex="1" connectable="0">
          <mxGeometry x="0.8449" y="2" relative="1" as="geometry">
            <mxPoint as="offset" />
          </mxGeometry>
        </mxCell>
        <mxCell id="jGPogQKzhmC8kMohIOGF-64" value="" style="rhombus;whiteSpace=wrap;html=1;" parent="1" vertex="1">
          <mxGeometry x="431" y="215" width="18" height="18" as="geometry" />
        </mxCell>
        <mxCell id="08WqR3wuoXAdrbxsFK-Q-1" value="" style="edgeStyle=elbowEdgeStyle;html=1;endArrow=none;elbow=vertical;rounded=0;entryX=0.016;entryY=0;entryDx=0;entryDy=0;entryPerimeter=0;" parent="1" target="jGPogQKzhmC8kMohIOGF-83" edge="1">
          <mxGeometry width="160" relative="1" as="geometry">
            <mxPoint x="351.36" y="384.5" as="sourcePoint" />
            <mxPoint x="480" y="385" as="targetPoint" />
          </mxGeometry>
        </mxCell>
        <mxCell id="08WqR3wuoXAdrbxsFK-Q-2" value="0..." style="edgeLabel;html=1;align=center;verticalAlign=middle;resizable=0;points=[];" parent="08WqR3wuoXAdrbxsFK-Q-1" vertex="1" connectable="0">
          <mxGeometry x="-0.8545" y="2" relative="1" as="geometry">
            <mxPoint as="offset" />
          </mxGeometry>
        </mxCell>
        <mxCell id="08WqR3wuoXAdrbxsFK-Q-3" value="0..." style="edgeLabel;html=1;align=center;verticalAlign=middle;resizable=0;points=[];" parent="08WqR3wuoXAdrbxsFK-Q-1" vertex="1" connectable="0">
          <mxGeometry x="0.7514" relative="1" as="geometry">
            <mxPoint x="5" as="offset" />
          </mxGeometry>
        </mxCell>
      </root>
    </mxGraphModel>
  </diagram>
</mxfile>
